# Blender v2.79 (sub 7) OBJ File: 'oldcompys.blend'
# www.blender.org
mtllib low_spec_commodore_64.mtl
o pc_c64
v 0.314645 -0.000000 -0.091771
v 0.314645 0.000000 0.104882
v 0.314645 0.078661 -0.091771
v 0.314645 0.026220 -0.104882
v 0.314645 0.052441 0.078661
v 0.314645 0.026220 0.104882
v -0.288424 -0.000000 -0.091771
v -0.288424 0.000000 0.104882
v -0.288424 0.078661 -0.091771
v -0.288424 0.026220 -0.104882
v -0.288424 0.052441 0.078661
v -0.288424 0.026220 0.104882
vt 0.000173 0.105102
vt 0.000173 0.043636
vt 0.999827 0.043637
vt 0.999827 0.105103
vt 0.000173 0.000173
vt 0.999827 0.000172
vt 0.000173 0.855452
vt 0.000172 0.529477
vt 0.999828 0.529477
vt 0.999827 0.855452
vt 0.999827 0.390938
vt 0.000172 0.390937
vt 0.348223 0.855797
vt 0.674198 0.855797
vt 0.695929 0.899260
vt 0.391687 0.942723
vt 0.348223 0.899260
vt 0.000172 0.529133
vt 0.000172 0.480539
vt 0.999827 0.480539
vt 0.999827 0.529133
vt 0.674198 0.986187
vt 0.000172 0.986187
vt 0.000172 0.942724
vt 0.043636 0.899260
vt 0.347879 0.942723
vt 0.326147 0.986187
vt 0.326147 0.855797
vn 0.0000 0.7071 0.7071
vn 0.0000 0.0000 1.0000
vn 0.0000 -1.0000 0.0000
vn 0.0000 0.9884 0.1521
vn 1.0000 0.0000 0.0000
vn 0.0000 -0.4472 -0.8944
vn -1.0000 -0.0000 0.0000
vn 0.0000 0.2425 -0.9701
usemtl c_64
s off
f 11/1/1 12/2/1 6/3/1 5/4/1
f 6/3/2 12/2/2 8/5/2 2/6/2
f 8/7/3 7/8/3 1/9/3 2/10/3
f 11/1/4 5/4/4 3/11/4 9/12/4
f 2/13/5 1/14/5 4/15/5 5/16/5 6/17/5
f 7/18/6 10/19/6 4/20/6 1/21/6
f 5/16/5 4/15/5 3/22/5
f 8/23/7 12/24/7 11/25/7 10/26/7 7/27/7
f 11/25/7 9/28/7 10/26/7
f 10/19/8 9/12/8 3/11/8 4/20/8
