# Blender v2.79 (sub 7) OBJ File: 'oldcompys.blend'
# www.blender.org
mtllib low_spec_zx_spectrum.mtl
o pc_zx_spectrum_Cube.001
v -0.254995 0.065050 0.173466
v -0.254995 0.000000 -0.173466
v -0.254995 0.065050 -0.173466
v 0.254995 0.000000 0.173466
v 0.254995 0.065050 0.173466
v 0.254995 0.000000 -0.173466
v 0.254995 0.065050 -0.173466
v -0.281882 0.021683 -0.173466
v 0.281882 0.021683 -0.173466
v 0.281882 0.021683 0.173466
v -0.254995 0.000000 0.173466
v -0.281882 0.021683 0.173466
vt 0.000000 0.671875
vt 0.672808 0.734375
vt 0.000000 0.734375
vt 0.044604 0.751603
vt 0.650125 0.805427
vt 0.014279 0.805427
vt -0.000000 0.843750
vt 0.671875 0.937500
vt -0.000000 0.937500
vt 0.879420 0.971463
vt 0.673993 0.789834
vt 0.889708 0.789834
vt 0.919306 0.926717
vt 0.980871 0.948321
vt 0.919306 0.948321
vt 0.000000 0.671875
vt 1.000000 0.000000
vt 1.000000 0.671875
vt 0.671875 0.984375
vt -0.000000 0.984375
vt 0.619800 0.829882
vt 0.044604 0.829883
vt 0.906250 0.890625
vt 0.921875 0.765625
vt 0.921875 0.890625
vt 0.684281 0.699022
vt 0.879420 0.699020
vt 0.672808 0.671875
vt 0.619800 0.751604
vt 0.671875 0.843750
vt 0.684281 0.971460
vt 0.980871 0.926717
vt 0.000000 0.000000
vt 0.906250 0.765625
vn -0.4863 0.8738 0.0000
vn -0.9858 -0.1678 0.0000
vn 0.0000 0.0000 -1.0000
vn 0.4863 0.8738 0.0000
vn 0.9858 -0.1678 0.0000
vn 0.0000 0.0000 1.0000
vn 0.3329 -0.9430 0.0000
vn -0.3329 -0.9430 0.0000
usemtl c_pet.001
s 1
f 1/1/1 8/2/2 12/3/2
f 3/4/3 9/5/3 8/6/3
f 7/7/4 10/8/5 9/9/5
f 5/10/6 12/11/6 10/12/6
f 6/13/7 11/14/8 2/15/8
f 3/16/1 5/17/4 7/18/4
f 9/9/5 4/19/7 6/20/7
f 8/6/3 6/21/3 2/22/3
f 12/23/2 2/24/8 11/25/8
f 10/12/6 11/26/6 4/27/6
f 1/1/1 3/28/1 8/2/2
f 3/4/3 7/29/3 9/5/3
f 7/7/4 5/30/4 10/8/5
f 5/10/6 1/31/6 12/11/6
f 6/13/7 4/32/7 11/14/8
f 3/16/1 1/33/1 5/17/4
f 9/9/5 10/8/5 4/19/7
f 8/6/3 9/5/3 6/21/3
f 12/23/2 8/34/2 2/24/8
f 10/12/6 12/11/6 11/26/6
